<svg width="693" height="490" viewBox="0 0 693 490" xmlns="http://www.w3.org/2000/svg"><title>diamonds_and_background</title><g fill="none" fill-rule="evenodd"><path fill="#FFF" d="M345 490L692.744 0H.032z"/><path fill="#4F1ECB" d="M519 83l-34 48-23.283 33 56.89 80.996L576.264 164z"/><path fill="#8A69DC" d="M519 123l-25 36-18.132 25.006 42.762 61.007L561.99 184z"/><path fill="#D8CDF3" d="M519 162l-17 25-12.092 17 28.7 40.97L547.789 204z"/><path fill="#4F1ECB" d="M173 83l-34 48-23.372 33 57.214 80.936 57.214-80.604z"/><path fill="#8A69DC" d="M173 123l-25 36-18.22 25 42.858 60.705L215.988 184z"/><path fill="#D8CDF3" d="M173 162l-17 25-12.098 17 28.906 40.792L201.714 204z"/><path fill="#4F1ECB" d="M346 0L244 145l-71.196 100L345 490l173.561-245z"/><path fill="#8A69DC" d="M209.374 297L345 490l136.682-193L345 104z"/><path fill="#D8CDF3" d="M345 212l-97.66 139L345 490l98.365-139z"/></g></svg>