<?xml version="1.0" encoding="UTF-8"?>
<svg width="693px" height="490px" viewBox="0 0 693 490" version="1.1" xmlns="http://www.w3.org/2000/svg" xmlns:xlink="http://www.w3.org/1999/xlink">
    <!-- Generator: Sketch 40.3 (33839) - http://www.bohemiancoding.com/sketch -->
    <title>everything</title>
    <desc>Created with Sketch.</desc>
    <defs></defs>
    <g id="Page-1" stroke="none" stroke-width="1" fill="none" fill-rule="evenodd">
        <g id="everything">
            <g id="diamonds_and_background">
                <polygon id="transparent_background" fill-opacity="0" fill="#FFFFFF" transform="translate(346.388275, 245.000000) scale(1, -1) translate(-346.388275, -245.000000) " points="345 0 692.744141 490 0.032409668 490"></polygon>
                <g id="diamonds" transform="translate(115.000000, 0.000000)">
                    <g id="side_diamond_right" transform="translate(346.000000, 83.000000)">
                        <polygon id="side_top" fill="#4F1ECB" points="58 0 24 48 0.716552734 81 57.6069336 161.996338 115.263794 81"></polygon>
                        <polygon id="side_middle" fill="#8A69DC" points="58 40 33 76 14.8684082 101.006348 57.6300049 162.012695 100.990601 101"></polygon>
                        <polygon id="side_bottom" fill="#D8CDF3" points="58 79 41 104 28.9078369 121 57.607666 161.96936 86.7891846 121"></polygon>
                    </g>
                    <g id="side_diamond_left" transform="translate(0.000000, 83.000000)">
                        <polygon id="side_top" fill="#4F1ECB" points="58 0 24 48 0.628173828 81 57.842041 161.936279 115.055908 81.3320313"></polygon>
                        <polygon id="side_middle" fill="#8A69DC" points="58 40 33 76 14.779541 101 57.6384277 161.705078 100.987793 101"></polygon>
                        <polygon id="side_bottom" fill="#D8CDF3" points="58 79 41 104 28.9023438 121 57.8081665 161.791748 86.7139893 121"></polygon>
                    </g>
                    <g id="main_diamond" transform="translate(57.000000, 0.000000)">
                        <polygon id="main_top" fill="#4F1ECB" points="174 5.68434189e-14 72 145 0.803710938 245 173 490 346.561279 245"></polygon>
                        <polygon id="main_middle" fill="#8A69DC" points="37.3737793 297 173 490 309.681885 297 173 104"></polygon>
                        <polygon id="main__bottom" fill="#D8CDF3" points="173 212 75.3391113 351 173 490 271.364746 351"></polygon>
                    </g>
                </g>
            </g>
            <g id="sides" fill="#30049e">
                <polyline id="front_half_left" points="345.014282 490 0 490 0 0"></polyline>
                <polyline id="front_half_right" transform="translate(518.876404, 245.014282) scale(-1, 1) translate(-518.876404, -245.014282) " points="692.752808 490 345 490 345 0.0285644531"></polyline>
            </g>
        </g>
    </g>
</svg>
