<svg width="693" height="490" viewBox="0 0 693 490" xmlns="http://www.w3.org/2000/svg"><title>Untitled 2</title><g fill="none" fill-rule="evenodd"><path fill="#fff" d="M0 0v.98l345.69 488.93h.8L692.97 0z"/><path fill="#4f1ecb" d="M346.24 0L243.82 145.28 173.2 245.44l172.24 244.47h.8l172.64-244.96z"/><path fill="#8a69dc" d="M209.86 297.3l135.71 192.61 136.65-193L346.2 103.92z"/><path fill="#d8cdf3" d="M346.15 211.83l-98.22 139.31 97.77 138.77h.45l98-139.04z"/><path fill="#4f1ecb" d="M519.28 82.75l-57.32 81.31 57.06 80.99h.26l57.2-81.15z"/><path fill="#8a69dc" d="M476.2 184.21l42.87 60.84 43.16-60.96-42.96-60.96z"/><path fill="#d8cdf3" d="M519.25 162l-29.33 41.61 29.2 41.44h.13l29.27-41.53z"/><path fill="#4f1ecb" d="M115.94 164.06L173 245.05l57.46-81.15-57.19-81.15z"/><path fill="#8a69dc" d="M130.19 184.21l42.86 60.84 43.16-60.96-42.96-60.96z"/><path fill="#d8cdf3" d="M173.23 162l-29.33 41.61 29.2 41.44h.13l29.27-41.53z"/></g></svg>