<svg width="290" height="291" viewBox="0 0 290 291" xmlns="http://www.w3.org/2000/svg"><title>golden-state-warriors</title><g fill="none" fill-rule="evenodd"><path d="M289.327 145.543c0 80.028-64.687 144.91-144.503 144.91-79.842 0-144.53-64.882-144.53-144.91C.294 65.516 64.982.613 144.824.613c79.816 0 144.503 64.903 144.503 144.93" fill="#006BB6"/><path d="M144.758 265.86c-68.803 0-124.58-55.928-124.58-124.938 0-68.997 55.777-124.938 124.58-124.938 68.816 0 124.586 55.948 124.586 124.938 0 69.01-55.77 124.938-124.586 124.938m-.013-258.225c-73.433 0-132.97 59.667-132.97 133.325 0 73.64 59.537 133.32 132.97 133.32 73.44 0 132.977-59.68 132.977-133.32 0-73.658-59.537-133.325-132.977-133.325" fill="#FDB927"/><path d="M71.656 77.793s74.08 99.26 191.884 121.85l-21.25 6.107S168.66 188.663 72.228 80.703" fill="#FDB927"/><path d="M36.718 217.554s95.853-15.84 201.52-13.26l21.16-4.553-11.418 25.01s-111.503-3.83-194.082 4.86c-14.716-2.024-12.785-7.425-12.785-7.425l-4.395-4.616" fill="#FDB927"/><path d="M50.91 231.175s124.943-5.458 188.354 2.987c1.677.223 5.144-5.725 5.144-5.725s-46.02-6.375-186.89-1.453c-22.847.803-6.607 4.19-6.607 4.19M65.587 88.517c-22.795 54.12-49.7 75.716-49.7 75.716l1.55 10.91s29.674-38.58 48.15-81.71c10.206-23.805 0-4.916 0-4.916" fill="#FDB927"/><path d="M67.603 73.658l-3.22.796s-3.144 154.367-1.1 171.556c.192 1.522 7.66.14 7.66.14s2.548 10.463 7.457 6.107c-4.318-54.706-5.36-181.796-5.36-181.796h-5.354l-.083 3.2m7.412 2.746l3.62-3.14 3.868 1.745s3.862 145.51 10.81 186.312l-3.766-.3s-7.558-.438-8.073-5.202c-3.036-27.245-6.46-179.415-6.46-179.415" fill="#FDB927"/><path fill="#FDB927" d="M54.483 220.736l-2.61-.46 10.74-60.73 2.597.466zm-9.555-1.153l-2.572-.484 21.632-122.4 2.61.44-21.67 122.43zm-7.72-8.018l-2-2.592 14.982-85.854 3.71-5.84-16.692 94.28zm62.887 2.489l2.508-.783-23.937-76.28 2.057 15.97 19.372 61.1zm9.295-2.354l2.514-.79-32.32-104.26.22 10.49 29.585 94.56zm10.81-1.985l2.517-.777-34.945-111.87-4.32-4.566 36.75 117.213zM98.69 108.7l32.03 100.756 2.515-.815-29.997-95.61-1.587-1.59m12.819 12.216l27.145 85.854 2.515-.79-25.722-81.65-3.532-3.4m36.578 84.037l2.515-.796-21.61-67.895-3.52-2.72 22.61 71.41zm11.173-.485l2.52-.802-17.33-55.03-4.06-3.67 18.87 59.51zm-4.915-48.767l15.453 48.49 2.508-.784-14.023-44.72-2.445-1.42m13.015 9.444l11.83 37.555 2.504-.78-10.943-34.59-3.01-.93m26.604 49.085l2.522-.79-11.84-38.37-4.42-5.305 13.738 44.47zm-.652-36.376l10.505 33.634 2.51-.816-9.014-28.894-4-3.923zm13.489 8.318l7.685 24.283 2.528-.79-6.415-20.2-3.798-3.28zm-187.658-3.936l-3.125-2.458 8.11-31.747 2.59.3-7.58 33.905zm6.918 8.916l-2.007-2.605 9.336-53.088 3.37-4.885-10.69 60.578z"/></g></svg>