<svg width="237" height="330" viewBox="0 0 237 330" xmlns="http://www.w3.org/2000/svg"><title>san-francisco-giants</title><path d="M99.446 146.655v33.1s42.097 2.725 54.997-5.092c-2.324 7.325-1.576 31.207 0 35.202-16.301-8.346-54.997-5.054-54.997-5.054v33.356h62.372l13.288-15.45v-57.052l-15.395-17.89c-9.17-.988-41.872-1.12-60.265-1.12zm-96.5-118.38C15.884 22.111 29.65 9.078 34.565.321c12.488 5.864 127.253 5 140.526 0 8.012 11.658 16.594 18.188 28.705 22.165-1.123 11.215-.76 15.198 2.902 24.185h-31.607l-13.273-14.794H49.278L34.533 44.794v59.638l14.693 14.234 18.601.76c0-22.151.23-26.346-16.071-30.698 5.432-10.862 6.522-12.13 7.948-25.662 13.967 4.67 158.182 2.116 164.467-1.456-1.026 14.086 6.953 40.917 12.316 50.907h-31.603c-1.6-10.966-8.543-19.437-19.564-21.497H99.446v28.398s66.826 1.843 75.645-1.17c4.392 11.391 20.195 28.108 31.607 32.715-3.848 23.302-3.126 63.038 0 87.185-12.446 6.144-25.13 18.822-31.607 31.58-15.716-4.324-75.645-2.178-75.645-2.178v17.863c3.095 12.192 9.637 15.138 21.148 16.132 0 0-9.237 17.347-9.61 27.486H56.963c-.211-9.896-9.604-27.486-9.604-27.486 10.372-.485 18.892-6.628 20.468-16.132V267.55s-18.948-.747-33.262 2.177c-4.336-9.708-20.134-27.135-31.619-31.58 2.64-6.983 1.407-50.581-2.455-59.787h34.074l-.032 44.357 13.286 15.45h20.008V146.66s-17.515-.864-33.262.343c-4.537-8.825-18.053-22.966-31.619-29.67 4.234-16.076 4.61-73.86 0-89.06z" fill="#FD5A1E" fill-rule="evenodd"/></svg>