<?xml version="1.0" encoding="UTF-8"?>
<svg width="290px" height="291px" viewBox="0 0 290 291" version="1.1" xmlns="http://www.w3.org/2000/svg" xmlns:xlink="http://www.w3.org/1999/xlink">
    <!-- Generator: Sketch 40.3 (33839) - http://www.bohemiancoding.com/sketch -->
    <title>golden-state-warriors</title>
    <desc>Created with Sketch.</desc>
    <defs></defs>
    <g id="Page-1" stroke="none" stroke-width="1" fill="none" fill-rule="evenodd">
        <g id="golden-state-warriors">
            <g id="Page-1">
                <g id="golden-state-warriors">
                    <g id="Group">
                        <path d="M289.327,145.543 C289.327,225.571 224.64,290.453 144.824,290.453 C64.982,290.453 0.294,225.571 0.294,145.543 C0.294,65.516 64.982,0.613 144.824,0.613 C224.64,0.613 289.327,65.516 289.327,145.543" id="Shape" fill="#006BB6"></path>
                        <path d="M144.758,265.86 C75.955,265.86 20.178,209.932 20.178,140.922 C20.178,71.925 75.955,15.984 144.758,15.984 C213.574,15.984 269.344,71.932 269.344,140.922 C269.344,209.932 213.574,265.86 144.758,265.86 M144.745,7.635 C71.312,7.635 11.775,67.302 11.775,140.96 C11.775,214.6 71.312,274.28 144.745,274.28 C218.185,274.28 277.722,214.6 277.722,140.96 C277.722,67.302 218.185,7.635 144.745,7.635" id="Shape" fill="#FDB927"></path>
                        <path d="M71.656,77.793 C71.656,77.793 145.736,177.053 263.54,199.643 L242.29,205.75 C242.29,205.75 168.66,188.663 72.228,80.703" id="Shape" fill="#FDB927"></path>
                        <path d="M36.718,217.554 C36.718,217.554 132.571,201.714 238.238,204.294 L259.398,199.741 L247.98,224.751 C247.98,224.751 136.477,220.921 53.898,229.611 C39.182,227.587 41.113,222.186 41.113,222.186 L36.718,217.57" id="Shape" fill="#FDB927"></path>
                        <path d="M50.91,231.175 C50.91,231.175 175.853,225.717 239.264,234.162 C240.941,234.385 244.408,228.437 244.408,228.437 C244.408,228.437 198.388,222.062 57.518,226.984 C34.671,227.787 50.911,231.174 50.911,231.174" id="Shape" fill="#FDB927"></path>
                        <path d="M65.587,88.517 C42.792,142.637 15.887,164.233 15.887,164.233 L17.437,175.143 C17.437,175.143 47.111,136.563 65.587,93.433 C75.793,69.628 65.587,88.517 65.587,88.517" id="Shape" fill="#FDB927"></path>
                        <path d="M67.603,73.658 L64.383,74.454 C64.383,74.454 61.239,228.821 63.283,246.01 C63.475,247.532 70.943,246.15 70.943,246.15 C70.943,246.15 73.491,256.613 78.4,252.257 C74.082,197.551 73.04,70.461 73.04,70.461 L67.686,70.461 L67.603,73.661" id="Shape" fill="#FDB927"></path>
                        <path d="M75.015,76.407 L78.635,73.267 L82.503,75.012 C82.503,75.012 86.365,220.522 93.313,261.324 L89.547,261.024 C89.547,261.024 81.989,260.586 81.474,255.822 C78.438,228.577 75.014,76.407 75.014,76.407" id="Shape" fill="#FDB927"></path>
                        <polygon id="Shape" fill="#FDB927" points="54.483 220.736 51.873 220.276 62.613 159.546 65.21 160.012"></polygon>
                        <polygon id="Shape" fill="#FDB927" points="44.928 219.583 42.356 219.099 63.988 96.699 66.598 97.139 44.928 219.569"></polygon>
                        <polygon id="Shape" fill="#FDB927" points="37.208 211.565 35.208 208.973 50.19 123.119 53.9 117.279 37.208 211.559"></polygon>
                        <polygon id="Shape" fill="#FDB927" points="100.095 214.054 102.603 213.271 78.666 136.991 80.723 152.961 100.095 214.061"></polygon>
                        <polygon id="Shape" fill="#FDB927" points="109.39 211.7 111.904 210.91 79.584 106.65 79.804 117.14 109.389 211.7"></polygon>
                        <polygon id="Shape" fill="#FDB927" points="120.2 209.715 122.717 208.938 87.772 97.068 83.452 92.502 120.202 209.715"></polygon>
                        <polyline id="Shape" fill="#FDB927" points="98.69 108.7 130.72 209.456 133.235 208.641 103.238 113.031 101.651 111.441"></polyline>
                        <polyline id="Shape" fill="#FDB927" points="114.47 123.657 141.615 209.511 144.13 208.721 118.408 127.071 114.876 123.671"></polyline>
                        <polygon id="Shape" fill="#FDB927" points="151.454 207.708 153.969 206.912 132.359 139.017 128.839 136.297 151.449 207.707"></polygon>
                        <polygon id="Shape" fill="#FDB927" points="162.627 207.223 165.147 206.421 147.817 151.391 143.757 147.721 162.627 207.231"></polygon>
                        <polyline id="Shape" fill="#FDB927" points="157.712 158.456 173.165 206.946 175.673 206.162 161.65 161.442 159.205 160.022"></polyline>
                        <polyline id="Shape" fill="#FDB927" points="172.22 169.466 184.05 207.021 186.554 206.241 175.611 171.651 172.601 170.721"></polyline>
                        <polygon id="Shape" fill="#FDB927" points="199.205 219.806 201.727 219.016 189.887 180.646 185.467 175.341 199.205 219.811"></polygon>
                        <polygon id="Shape" fill="#FDB927" points="198.553 183.43 209.058 217.064 211.568 216.248 202.554 187.354 198.554 183.431"></polygon>
                        <polygon id="Shape" fill="#FDB927" points="212.042 191.748 219.727 216.031 222.255 215.241 215.84 195.041 212.042 191.761"></polygon>
                        <polygon id="Shape" fill="#FDB927" points="24.384 187.812 21.259 185.354 29.369 153.607 31.959 153.907 24.379 187.812"></polygon>
                        <polygon id="Shape" fill="#FDB927" points="31.302 196.728 29.295 194.123 38.631 141.035 42.001 136.15 31.311 196.728"></polygon>
                    </g>
                </g>
            </g>
        </g>
    </g>
</svg>