<svg xmlns="http://www.w3.org/2000/svg" version="1" width="500" height="461.572"><path d="M402.799.049v149.886l-15.182-.073 60.506 161.634 51.877.068v150.008H0V311.766l51.51.067 61.038-162.094-15.506.037L97.103 0 402.8.049z" fill="#fff"/><path d="M250.006 55.622h96.565v38.624h-40.117l105.474 271.85h31.195v39.995H312.396V367.18H275.7v76.298h206.334V329.713l-46.333.08-74.273-198.013h23.326V18.082H115.252V131.78h23.332L64.305 329.542l-46.333.17v113.766h206.346V367.18H187.61v38.91H56.883v-39.993h31.195L193.552 94.246h-40.11V55.622h96.564z" fill="#0c234b"/><path d="M249.908 55.971l107.096 277.695s13.719 33.795 36.004 33.795h-77.975s3.916.57 7.82-5.935c2.234-3.714.35-9.289.35-9.289l-24.116-61.992h-98.156l-24.145 61.992s-1.842 5.575.385 9.289c3.886 6.504 7.79 5.935 7.79 5.935h-77.97c22.274 0 36.011-33.795 36.011-33.795L249.908 55.97m-.085 204.841h37.723l-36.983-97.415-38.293 97.415h37.553z" fill="#ab0520"/></svg>