<?xml version="1.0" encoding="UTF-8" standalone="no"?>
<!-- Created with Inkscape (http://www.inkscape.org/) -->
<svg
   xmlns:svg="http://www.w3.org/2000/svg"
   xmlns="http://www.w3.org/2000/svg"
   version="1.0"
   width="500"
   height="461.57236"
   id="svg2"
   xml:space="preserve"><defs
     id="defs5"><clipPath
       id="clipPath17"><path
         d="M 0,0 L 792,0 L 792,612 L 0,612 L 0,0 z"
         id="path19" /></clipPath><clipPath
       id="clipPath25"><path
         d="M 36,530.75 L 756,530.75 L 756,576 L 36,576 L 36,530.75 z"
         id="path27" /></clipPath><clipPath
       id="clipPath153"><path
         d="M 243,82.519 L 495,82.519 L 495,120.884 L 243,120.884 L 243,82.519 z"
         id="path155" /></clipPath><clipPath
       id="clipPath219"><path
         d="M 504,82.974 L 756,82.974 L 756,121.12 L 504,121.12 L 504,82.974 z"
         id="path221" /></clipPath><clipPath
       id="clipPath285"><path
         d="M 504,36.164 L 756,36.164 L 756,74.31 L 504,74.31 L 504,36.164 z"
         id="path287" /></clipPath><clipPath
       id="clipPath293"><path
         d="M 307.513,74.311 L 769.555,74.311 L 769.555,23.011 L 307.513,23.011 L 307.513,74.311 z"
         id="path295" /></clipPath><clipPath
       id="clipPath357"><path
         d="M 307.513,74.311 L 769.555,74.311 L 769.555,23.011 L 307.513,23.011 L 307.513,74.311 z"
         id="path359" /></clipPath><clipPath
       id="clipPath367"><path
         d="M 243,36 L 495,36 L 495,74.475 L 243,74.475 L 243,36 z"
         id="path369" /></clipPath><clipPath
       id="clipPath433"><path
         d="M 76.026,382.787 L 171.94,382.787 L 171.94,479.448 L 76.026,479.448 L 76.026,382.787 z"
         id="path435" /></clipPath><clipPath
       id="clipPath465"><path
         d="M 243,367.531 L 348.976,367.531 L 348.976,477 L 243,477 L 243,367.531 z"
         id="path467" /></clipPath><clipPath
       id="clipPath527"><path
         d="M 427.791,401.569 L 745.992,401.569 L 745.992,477 L 427.791,477 L 427.791,401.569 z"
         id="path529" /></clipPath></defs><g
     transform="matrix(1.25,0,0,-1.25,-103.115,966.59236)"
     id="g11"><path
       d="M 404.73108,773.23473 L 404.73108,653.32578 L 392.58598,653.38452 L 440.99013,524.07671 L 482.49199,524.02286 L 482.49199,404.01601 L 82.491997,404.01601 L 82.491997,523.86132 L 123.70014,523.80747 L 172.53018,653.48243 L 160.12564,653.45306 L 160.17459,773.27389 L 404.73108,773.23473 z"
       id="path437"
       style="fill:#ffffff;fill-opacity:1;fill-rule:nonzero;stroke:none" /><path
       d="M 282.49689,728.77614 L 359.7487,728.77614 L 359.7487,697.87738 L 327.6555,697.87738 L 412.03478,480.39647 L 436.99072,480.39647 L 436.99072,448.40117 L 332.40878,448.40117 L 332.40878,479.53001 L 303.05201,479.53001 L 303.05201,418.49124 L 468.11956,418.49124 L 468.11956,509.50358 L 431.05279,509.43994 L 371.63435,667.84996 L 390.29501,667.84996 L 390.29501,758.80845 L 282.49689,758.80845 L 174.69388,758.80845 L 174.69388,667.84996 L 193.35943,667.84996 L 133.93609,509.64064 L 96.869322,509.50358 L 96.869322,418.49124 L 261.94667,418.49124 L 261.94667,479.53001 L 232.58011,479.53001 L 232.58011,448.40117 L 127.99816,448.40117 L 127.99816,480.39647 L 152.95411,480.39647 L 237.33339,697.87738 L 205.24508,697.87738 L 205.24508,728.77614 L 282.49689,728.77614 z"
       id="path441"
       style="fill:#0c234b;fill-opacity:1;fill-rule:nonzero;stroke:none" /><path
       d="M 282.41857,728.49711 L 368.09509,506.34125 C 368.09509,506.34125 379.07022,479.30483 396.89869,479.30483 L 334.51863,479.30483 C 334.51863,479.30483 337.65158,478.84957 340.77474,484.05321 C 342.56151,487.02463 341.05377,491.48419 341.05377,491.48419 L 321.76163,541.07789 L 282.41857,541.07789 L 243.23705,541.07789 L 223.92043,491.48419 C 223.92043,491.48419 222.44696,487.02463 224.22883,484.05321 C 227.33731,478.84957 230.46047,479.30483 230.46047,479.30483 L 168.0853,479.30483 C 185.90398,479.30483 196.8938,506.34125 196.8938,506.34125 L 282.41857,728.49711 M 282.35003,564.624 L 312.5292,564.624 L 282.94236,642.55625 L 252.30793,564.624 L 282.35003,564.624 z"
       id="path439"
       style="fill:#ab0520;fill-opacity:1;fill-rule:nonzero;stroke:none" /></g></svg>